<?xml version="1.0" encoding="UTF-8" standalone="no"?>
<svg
   width="963"
   height="169"
   viewBox="0 0 963 169"
   fill="none"
   version="1.1"
   id="svg63"
   sodipodi:docname="Full Logo2.svg"
   inkscape:version="1.2-dev (fd9e8ca1, 2022-02-04)"
   xmlns:inkscape="http://www.inkscape.org/namespaces/inkscape"
   xmlns:sodipodi="http://sodipodi.sourceforge.net/DTD/sodipodi-0.dtd"
   xmlns="http://www.w3.org/2000/svg"
   xmlns:svg="http://www.w3.org/2000/svg">
  <sodipodi:namedview
     id="namedview65"
     pagecolor="#ffffff"
     bordercolor="#000000"
     borderopacity="0.25"
     inkscape:pageshadow="2"
     inkscape:pageopacity="0.0"
     inkscape:pagecheckerboard="0"
     inkscape:blackoutopacity="0.0"
     showgrid="false"
     inkscape:zoom="1.3070094"
     inkscape:cx="464.80155"
     inkscape:cy="-32.134428"
     inkscape:window-width="1920"
     inkscape:window-height="1009"
     inkscape:window-x="-8"
     inkscape:window-y="-8"
     inkscape:window-maximized="1"
     inkscape:current-layer="svg63" />
  <path
     d="M148.112 150.986C159.606 155.763 172.529 155.785 184.038 151.047C195.548 146.309 204.702 137.199 209.485 125.721L254.375 18.0134C242.882 13.2362 229.959 13.2142 218.449 17.9523C206.939 22.6904 197.786 31.8003 193.002 43.2782L148.112 150.986Z"
     fill="url(#paint0_linear)"
     id="path9" />
  <path
     d="M73.8789 150.988C85.3724 155.766 98.2954 155.788 109.805 151.05C121.315 146.311 130.468 137.201 135.252 125.724L180.142 18.0162C168.649 13.239 155.726 13.217 144.216 17.9551C132.706 22.6931 123.553 31.8031 118.769 43.281L73.8789 150.988Z"
     fill="url(#paint1_linear)"
     id="path11" />
  <path
     d="M9.18199 130.636C11.6709 124.669 13.7057 118.541 15.6676 112.396C16.6319 109.272 18.2278 106.38 20.3567 103.897C22.4855 101.415 25.1019 99.3947 28.044 97.9628C30.9861 96.5308 34.1912 95.7171 37.4609 95.572C40.7306 95.427 43.9953 95.9537 47.0529 97.1196C50.1106 98.2855 52.896 100.066 55.2369 102.35C57.5778 104.634 59.4242 107.374 60.6619 110.4C61.8996 113.426 62.5023 116.673 62.4326 119.941C62.3628 123.208 61.6222 126.427 60.2566 129.397C59.3419 131.465 58.1411 133.395 56.6895 135.129C50.4653 143.614 41.5646 149.762 31.4186 152.584C21.2726 155.407 10.471 154.74 0.750626 150.69L9.18199 130.636Z"
     fill="url(#paint2_linear)"
     id="path13" />
  <path
     d="M97.0919 38.466C94.6031 44.4327 92.5682 50.5615 90.6063 56.7064C89.642 59.8298 88.0461 62.7223 85.9173 65.2049C83.7884 67.6875 81.172 69.7073 78.2299 71.1393C75.2878 72.5713 72.0827 73.385 68.813 73.53C65.5433 73.675 62.2786 73.1483 59.221 71.9825C56.1634 70.8166 53.3779 69.0364 51.037 66.752C48.6962 64.4677 46.8497 61.7279 45.612 58.7021C44.3743 55.6764 43.7716 52.4291 43.8414 49.1614C43.9111 45.8937 44.6517 42.675 46.0173 39.7046C46.9321 37.6368 48.1328 35.7073 49.5845 33.9726C55.8086 25.4878 64.7093 19.3399 74.8553 16.5176C85.0013 13.6953 95.8029 14.3625 105.523 18.412L97.0919 38.466Z"
     fill="url(#paint3_linear)"
     id="path15" />
  <defs
     id="defs61">
    <rect
       x="273.14264"
       y="-126.2424"
       width="234.88737"
       height="118.59134"
       id="rect13089" />
    <linearGradient
       id="paint0_linear"
       x1="169.78"
       y1="159.992"
       x2="232.561"
       y2="8.94658"
       gradientUnits="userSpaceOnUse">
      <stop
         stop-color="#66B3B3"
         id="stop41" />
      <stop
         offset="1"
         stop-color="#95CACA"
         id="stop43" />
    </linearGradient>
    <linearGradient
       id="paint1_linear"
       x1="95.547"
       y1="159.995"
       x2="158.328"
       y2="8.94937"
       gradientUnits="userSpaceOnUse">
      <stop
         stop-color="#66B3B3"
         id="stop46" />
      <stop
         offset="1"
         stop-color="#95CACA"
         id="stop48" />
    </linearGradient>
    <linearGradient
       id="paint2_linear"
       x1="52.6972"
       y1="105.259"
       x2="14.1123"
       y2="154.478"
       gradientUnits="userSpaceOnUse">
      <stop
         stop-color="#0CA4A5"
         id="stop51" />
      <stop
         offset="1"
         stop-color="#097677"
         id="stop53" />
    </linearGradient>
    <linearGradient
       id="paint3_linear"
       x1="53.5767"
       y1="63.8427"
       x2="92.1617"
       y2="14.6241"
       gradientUnits="userSpaceOnUse">
      <stop
         stop-color="#0CA4A5"
         id="stop56" />
      <stop
         offset="1"
         stop-color="#097677"
         id="stop58" />
    </linearGradient>
  </defs>
  <text
     xml:space="preserve"
     style="font-style:normal;font-variant:normal;font-weight:900;font-stretch:normal;font-size:192px;font-family:'Nunito Sans';-inkscape-font-specification:'Nunito Sans Heavy';stroke-width:3.36034"
     x="850.99475"
     y="0.02871453"
     id="text16369"
     transform="scale(0.29759277,3.3602967)"><tspan
       sodipodi:role="line"
       id="tspan16367"
       x="850.99475"
       y="0.02871453"
       style="font-size:192px;stroke-width:3.36034">TimTim</tspan></text>
  <text
     xml:space="preserve"
     style="font-style:normal;font-variant:normal;font-weight:bold;font-stretch:normal;font-size:130.781px;font-family:'Noto Sans Display';-inkscape-font-specification:'Noto Sans Display Bold';fill:#1c1e26;fill-opacity:1;stroke-width:0.681144"
     x="265.95428"
     y="133.2859"
     id="text17199"
     transform="scale(1.0053792,0.99464957)"><tspan
       sodipodi:role="line"
       id="tspan17197"
       x="265.95428"
       y="133.2859"
       style="font-style:normal;font-variant:normal;font-weight:bold;font-stretch:normal;font-family:'Noto Sans Display';-inkscape-font-specification:'Noto Sans Display Bold';stroke-width:0.681144">Tim</tspan></text>
</svg>
